<?xml version="1.0" standalone="no"?>
<!DOCTYPE svg PUBLIC "-//W3C//DTD SVG 20010904//EN"
 "http://www.w3.org/TR/2001/REC-SVG-20010904/DTD/svg10.dtd">
<svg version="1.0" xmlns="http://www.w3.org/2000/svg"
 width="1280.000000pt" height="980.000000pt" viewBox="0 0 1280.000000 980.000000"
 preserveAspectRatio="xMidYMid meet">
<metadata>
Created by potrace 1.15, written by Peter Selinger 2001-2017
</metadata>
<g transform="translate(0.000000,980.000000) scale(0.100000,-0.100000)"
fill="#fff" stroke="none">
<path d="M869 9359 c-288 -242 -538 -455 -555 -472 -27 -28 -49 -88 -167 -463
-75 -237 -139 -438 -142 -446 -4 -11 119 -78 502 -273 279 -142 625 -319 767
-392 143 -73 261 -131 263 -129 2 2 -14 14 -34 28 -28 19 -941 675 -949 682
-1 0 31 156 72 346 40 190 78 368 84 397 l11 52 419 214 419 215 538 -170 539
-170 669 -1041 c369 -572 676 -1050 683 -1063 10 -20 7 -215 -19 -1092 -18
-587 -33 -1143 -34 -1237 -8 -523 -47 -1773 -57 -1795 -5 -14 -16 -73 -23
-131 -10 -93 -23 -138 -101 -348 l-89 -242 -354 -227 c-231 -148 -362 -226
-376 -224 -12 2 -415 -133 -896 -299 -481 -166 -914 -315 -963 -332 l-90 -30
88 -18 c48 -10 106 -24 129 -32 42 -14 51 -11 882 208 l840 222 45 -17 c25 -9
321 -184 659 -389 l614 -373 588 -29 588 -29 528 -101 c511 -97 536 -101 763
-115 129 -8 438 -17 685 -20 248 -4 457 -10 465 -15 9 -4 21 -2 30 5 10 9 87
17 230 25 243 13 436 31 655 62 168 24 18 -28 1750 600 l630 228 -445 3 -445
3 454 3 454 2 751 126 c739 124 752 127 796 158 59 42 86 88 74 126 -5 16 -47
68 -95 117 l-85 88 -770 -228 -769 -229 -510 12 c-280 7 -515 15 -521 19 -6 3
-253 283 -547 621 -491 562 -538 620 -557 674 -24 72 -25 86 -5 86 21 0 20 2
-23 68 -21 32 -46 87 -57 121 -17 56 -21 62 -41 57 -19 -5 -173 214 -1483
2118 l-1462 2123 -1057 750 -1057 749 -1150 633 c-632 349 -1164 642 -1181
652 l-32 19 -523 -441z m9079 -8436 c-21 -2 -57 -2 -80 0 -24 2 -7 4 37 4 44
0 63 -2 43 -4z"/>
<path d="M882 711 c-46 -8 -68 -23 -58 -39 4 -7 29 -3 69 10 102 34 97 46 -11
29z"/>
</g>
</svg>
